<svg width="800" height="800" viewBox="0 0 800 800" fill="none" xmlns="http://www.w3.org/2000/svg">
<path d="M501.519 124.897H564.419C581.101 124.897 597.1 131.524 608.896 143.32C620.692 155.116 627.319 171.115 627.319 187.797V213.964M249.919 124.897H187.019C170.337 124.897 154.338 131.524 142.542 143.32C130.746 155.116 124.119 171.115 124.119 187.797V628.098C124.119 644.78 130.746 660.779 142.542 672.575C154.338 684.371 170.337 690.998 187.019 690.998H249.919" stroke="#4C95FA" stroke-width="62.9112" stroke-linecap="round" stroke-linejoin="round"/>
<path d="M470.07 61.9971H281.37C264.001 61.9971 249.92 76.0777 249.92 93.4471V156.347C249.92 173.716 264.001 187.797 281.37 187.797H470.07C487.439 187.797 501.52 173.716 501.52 156.347V93.4471C501.52 76.0777 487.439 61.9971 470.07 61.9971Z" stroke="#4C95FA" stroke-width="62.9112" stroke-linecap="round" stroke-linejoin="round"/>
<path d="M737.458 738.408L634.998 635.948" stroke="#4C95FA" stroke-width="62.7137" stroke-linecap="round" stroke-linejoin="round"/>
<path d="M501.37 691.186C605.677 691.186 690.235 606.628 690.235 502.32C690.235 398.013 605.677 313.455 501.37 313.455C397.062 313.455 312.504 398.013 312.504 502.32C312.504 606.628 397.062 691.186 501.37 691.186Z" stroke="#4C95FA" stroke-width="62.7137" stroke-linecap="round" stroke-linejoin="round"/>
</svg>
