<svg width="512" height="512" viewBox="40 140 480 530" fill="none" xmlns="http://www.w3.org/2000/svg">
<path d="M325.988 223.88H366.873C377.716 223.88 388.115 228.187 395.783 235.855C403.45 243.522 407.758 253.922 407.758 264.765V281.773M162.448 223.88H121.563C110.719 223.88 100.32 228.187 92.6527 235.855C84.9852 243.522 80.6777 253.922 80.6777 264.765V550.96C80.6777 561.803 84.9852 572.203 92.6527 579.87C100.32 587.538 110.719 591.845 121.563 591.845H162.448" stroke="#000000" stroke-width="40.8923" stroke-linecap="round" stroke-linejoin="round"/>
<path d="M305.545 182.995H182.89C171.6 182.995 162.447 192.147 162.447 203.437V244.322C162.447 255.612 171.6 264.765 182.89 264.765H305.545C316.835 264.765 325.987 255.612 325.987 244.322V203.437C325.987 192.147 316.835 182.995 305.545 182.995Z" stroke="#000000" stroke-width="40.8923" stroke-linecap="round" stroke-linejoin="round"/>
<path d="M479.347 622.662L412.748 556.063" stroke="#000000" stroke-width="40.7639" stroke-linecap="round" stroke-linejoin="round"/>
<path d="M325.89 591.968C393.69 591.968 448.652 537.005 448.652 469.205C448.652 401.405 393.69 346.442 325.89 346.442C258.09 346.442 203.127 401.405 203.127 469.205C203.127 537.005 258.09 591.968 325.89 591.968Z" stroke="#000000" stroke-width="40.7639" stroke-linecap="round" stroke-linejoin="round"/>
</svg>
