<svg width="2656" height="822" viewBox="0 0 2656 822" fill="none" xmlns="http://www.w3.org/2000/svg">
<path d="M2394.22 364.111L2461.87 532.559L2524.59 364.111H2594.03L2442.15 730.575H2372.27L2428.27 605.135L2323.88 364.111H2394.22Z" fill="currentColor"/>
<path d="M2291.45 321.103C2272.93 319.908 2259.94 322.596 2252.47 329.167C2245.01 335.738 2241.27 347.236 2241.27 363.663V364.111H2291.45V417.423H2241.27V612.303H2178.1V417.423H2146.3V364.111H2178.1V358.287C2178.1 328.719 2186.47 306.02 2203.19 290.191C2220.22 274.063 2245.3 265.999 2278.46 265.999C2284.13 265.999 2288.46 266.148 2291.45 266.447V321.103Z" fill="currentColor"/>
<path d="M2018.82 292.879C2018.82 282.724 2022.4 274.511 2029.57 268.239C2036.74 261.668 2046.14 258.383 2057.79 258.383C2069.44 258.383 2078.85 261.668 2086.02 268.239C2093.18 274.511 2096.77 282.724 2096.77 292.879C2096.77 302.735 2093.18 310.948 2086.02 317.519C2078.85 323.791 2069.44 326.927 2057.79 326.927C2046.14 326.927 2036.74 323.791 2029.57 317.519C2022.4 310.948 2018.82 302.735 2018.82 292.879ZM2089.15 364.111V612.303H2025.98V364.111H2089.15Z" fill="currentColor"/>
<path d="M1828.61 292.879C1867.13 292.879 1899.09 302.436 1924.48 321.551C1949.86 340.367 1966.14 365.903 1973.31 398.159H1907.01C1900.73 383.823 1890.73 372.474 1876.99 364.111C1863.55 355.45 1847.57 351.119 1829.05 351.119C1810.84 351.119 1794.71 355.301 1780.67 363.663C1766.63 372.026 1755.73 383.972 1747.97 399.503C1740.2 415.034 1736.32 433.253 1736.32 454.159C1736.32 487.311 1745.13 513.146 1762.75 531.663C1780.67 550.18 1805.01 559.439 1835.77 559.439C1858.47 559.439 1877.89 552.719 1894.01 539.279C1910.44 525.839 1921.04 507.173 1925.82 483.279H1818.75V438.031H1978.69V498.959C1974.21 519.866 1965.4 539.13 1952.25 556.751C1939.41 574.372 1922.39 588.559 1901.18 599.311C1880.28 609.764 1856.23 614.991 1829.05 614.991C1797.99 614.991 1770.52 608.271 1746.62 594.831C1723.03 581.093 1704.66 562.127 1691.52 537.935C1678.68 513.444 1672.25 485.519 1672.25 454.159C1672.25 422.799 1678.68 395.023 1691.52 370.831C1704.66 346.34 1723.03 327.226 1746.62 313.487C1770.22 299.748 1797.54 292.879 1828.61 292.879Z" fill="currentColor"/>
<path d="M1559.31 548.687H1432.53L1410.13 612.303H1343.38L1459.86 299.599H1531.98L1648.02 612.303H1581.26L1559.31 548.687ZM1542.29 500.751L1495.7 367.247L1449.1 500.751H1542.29Z" fill="currentColor"/>
<path d="M1169.65 292.879C1209.07 292.879 1241.77 303.034 1267.76 323.343C1293.74 343.652 1310.92 371.279 1319.28 406.223H1252.97C1246.11 389.199 1235.35 375.759 1220.72 365.903C1206.38 356.047 1189.06 351.119 1168.75 351.119C1152.03 351.119 1136.94 355.301 1123.5 363.663C1110.06 372.026 1099.61 383.972 1092.14 399.503C1084.68 415.034 1080.94 433.253 1080.94 454.159C1080.94 474.767 1084.68 492.837 1092.14 508.367C1099.61 523.898 1110.06 535.845 1123.5 544.207C1136.94 552.57 1152.03 556.751 1168.75 556.751C1189.06 556.751 1206.38 551.823 1220.72 541.967C1235.35 532.111 1246.11 518.671 1252.97 501.647H1319.28C1310.92 536.591 1293.74 564.218 1267.76 584.527C1241.77 604.836 1209.07 614.991 1169.65 614.991C1139.48 614.991 1112.75 608.271 1089.45 594.831C1066.46 581.093 1048.54 561.978 1035.69 537.487C1023.15 512.997 1016.88 485.22 1016.88 454.159C1016.88 422.799 1023.15 394.874 1035.69 370.383C1048.54 345.892 1066.46 326.927 1089.45 313.487C1112.45 299.748 1139.18 292.879 1169.65 292.879Z" fill="currentColor"/>
<path d="M983.52 296.015L906.016 612.303H828.064L768.928 382.927L709.344 612.303H631.84L554.336 296.015H622.88L671.264 541.071L733.984 296.015H803.424L866.592 541.071L914.976 296.015H983.52Z" fill="currentColor"/>
<path d="M325.988 223.88H366.873C377.716 223.88 388.115 228.187 395.783 235.855C403.45 243.522 407.758 253.922 407.758 264.765V281.773M162.448 223.88H121.563C110.719 223.88 100.32 228.187 92.6527 235.855C84.9852 243.522 80.6777 253.922 80.6777 264.765V550.96C80.6777 561.803 84.9852 572.203 92.6527 579.87C100.32 587.538 110.719 591.845 121.563 591.845H162.448" stroke="currentColor" stroke-width="40.8923" stroke-linecap="round" stroke-linejoin="round"/>
<path d="M305.545 182.995H182.89C171.6 182.995 162.447 192.147 162.447 203.437V244.322C162.447 255.612 171.6 264.765 182.89 264.765H305.545C316.835 264.765 325.987 255.612 325.987 244.322V203.437C325.987 192.147 316.835 182.995 305.545 182.995Z" stroke="currentColor" stroke-width="40.8923" stroke-linecap="round" stroke-linejoin="round"/>
<path d="M479.347 622.662L412.748 556.063" stroke="currentColor" stroke-width="40.7639" stroke-linecap="round" stroke-linejoin="round"/>
<path d="M325.89 591.968C393.69 591.968 448.652 537.005 448.652 469.205C448.652 401.405 393.69 346.442 325.89 346.442C258.09 346.442 203.127 401.405 203.127 469.205C203.127 537.005 258.09 591.968 325.89 591.968Z" stroke="currentColor" stroke-width="40.7639" stroke-linecap="round" stroke-linejoin="round"/>
</svg>
